<?xml version="1.0" encoding="UTF-8" standalone="no"?>
<!-- Created with Inkscape (http://www.inkscape.org/) -->

<svg
   width="281mm"
   height="64mm"
   viewBox="0 0 281 64"
   version="1.1"
   id="svg1"
   inkscape:version="1.3 (1:1.3+202307231459+0e150ed6c4)"
   sodipodi:docname="harbor-logo.svg"
   xml:space="preserve"
   inkscape:export-filename="harbor-logo.png"
   inkscape:export-xdpi="600"
   inkscape:export-ydpi="600"
   xmlns:inkscape="http://www.inkscape.org/namespaces/inkscape"
   xmlns:sodipodi="http://sodipodi.sourceforge.net/DTD/sodipodi-0.dtd"
   xmlns="http://www.w3.org/2000/svg"
   xmlns:svg="http://www.w3.org/2000/svg"><sodipodi:namedview
     id="namedview1"
     pagecolor="#ffffff"
     bordercolor="#000000"
     borderopacity="0.25"
     inkscape:showpageshadow="2"
     inkscape:pageopacity="0.0"
     inkscape:pagecheckerboard="0"
     inkscape:deskcolor="#d1d1d1"
     inkscape:document-units="mm"
     inkscape:zoom="2.2311416"
     inkscape:cx="118.54918"
     inkscape:cy="24.202856"
     inkscape:window-width="1874"
     inkscape:window-height="1016"
     inkscape:window-x="46"
     inkscape:window-y="1107"
     inkscape:window-maximized="1"
     inkscape:current-layer="layer2"
     showguides="true" /><defs
     id="defs1" /><g
     inkscape:groupmode="layer"
     id="layer2"
     inkscape:label="whale"
     style="display:inline"><path
       style="opacity:1;fill:none;stroke:#017ab9;stroke-width:3.77953;stroke-linecap:round;stroke-linejoin:round;stroke-dasharray:none;stroke-opacity:1"
       d="m 100.14934,142.86156 c 4.85819,14.80084 9.41698,29.76634 16.67159,43.24926 4.95004,6.74304 6.08088,11.56107 15.56921,20.59155 3.5483,3.5483 6.61687,3.72972 7.86766,3.00758 4.02462,-2.63633 4.12272,-6.25629 4.12272,-9.13572 0,-6.46084 -1.17463,-11.09496 -2.78783,-16.74079 -0.81696,-3.04893 -8.76166,-18.28501 -12.74063,-26.16379"
       id="path2"
       transform="matrix(0.26458333,0,0,0.26458333,-2.3812498,-1.5875001)"
       sodipodi:nodetypes="ccccccc" /><path
       style="opacity:1;fill:none;stroke:#017ab9;stroke-width:3.77953;stroke-linecap:round;stroke-linejoin:round;stroke-dasharray:none;stroke-opacity:1"
       d="m 141.59269,183.83344 23.97444,-6.85554 c 7.18461,-1.92511 14.06546,-6.41224 23.71909,-12.0829 6.48745,-3.74553 12.74781,-9.16333 20.5064,-15.24722 22.92441,-22.65325 34.25885,-40.21954 34.78604,-40.74673 2.03362,-2.03362 6.49791,-5.25083 8.54524,-5.79941 3.66328,-0.98157 19.08313,-2.08233 20.90592,-2.65251 7.70842,-2.106697 15.05303,-4.35822 20.32744,-8.405841 3.95383,-2.923826 6.81909,-5.367539 11.41521,-9.963661 2.30158,-2.3696 1.0189,-5.153218 -0.49803,-4.746758 -7.75105,2.076889 -21.95351,3.341807 -22.88908,3.341807 -4.64382,-0.01318 -12.52003,-0.470494 -18.51867,-1.596726 -6.14813,-1.647388 -10.58413,-4.219071 -15.83195,-7.43817 -3.65044,-2.107585 -7.19421,-7.041664 -10.82058,-11.703086 -5.14626,-5.555573 -7.53234,-5.036316 -7.53234,0.780929 -0.3188,14.992631 12.45431,24.707641 9.90808,34.210296 -0.49723,1.855687 -11.86462,16.22232 -23.83522,20.80228 -3.43291,0.91985 -10.76548,3.01231 -17.70486,1.15291 -21.30325,-5.70819 -28.92377,-9.82698 -72.5735,-12.95112 -25.712629,-2.61318 -55.236551,-3.48093 -60.605467,-3.37895 -5.627669,0 -11.340816,-0.662916 -16.940357,-0.662916 -8.269959,0 -7.908751,5.277376 -7.908751,6.836356 0,15.70668 6.353878,31.62294 9.471569,38.45692 5.548409,11.91535 12.159243,19.81691 16.741576,24.39924 4.761445,4.76148 16.677004,12.17267 26.054321,14.68531 9.069959,2.43029 16.380349,2.28597 24.795869,2.20583"
       id="path3"
       transform="matrix(0.26458333,0,0,0.26458333,-2.3812498,-1.5875001)"
       sodipodi:nodetypes="cccccccccccccccccccccccccc" /><path
       style="opacity:1;fill:none;stroke:#017ab9;stroke-width:3.77953;stroke-linecap:round;stroke-linejoin:round;stroke-dasharray:none;stroke-opacity:1"
       d="m 49.23112,143.63793 c 20.629586,8.46335 44.75898,17.56677 56.29859,16.54306"
       id="path4"
       transform="matrix(0.26458333,0,0,0.26458333,-2.3812498,-1.5875001)"
       sodipodi:nodetypes="cc" /><path
       style="opacity:1;fill:none;stroke:#017ab9;stroke-width:3.77953;stroke-linecap:round;stroke-linejoin:round;stroke-dasharray:none;stroke-opacity:1"
       d="m 41.251487,119.55173 c 11.564547,9.76043 26.421213,14.29389 39.15255,13.16655"
       id="path5"
       transform="matrix(0.26458333,0,0,0.26458333,-2.3812498,-1.5875001)"
       sodipodi:nodetypes="cc" /><path
       style="opacity:1;fill:none;stroke:#017ab9;stroke-width:3.77953;stroke-linecap:round;stroke-linejoin:round;stroke-dasharray:none;stroke-opacity:1"
       d="m 130.74183,160.96615 c 12.85287,-0.70229 25.70574,-1.0721 38.55861,-2.10948 13.64632,-1.41453 26.88921,-2.95388 35.975,-5.80805"
       id="path6"
       transform="matrix(0.26458333,0,0,0.26458333,-2.3812498,-1.5875001)"
       sodipodi:nodetypes="ccc" /><ellipse
       style="fill:#017ab9;fill-opacity:1;stroke:none;stroke-width:1.64195;stroke-linecap:round;stroke-linejoin:round;stroke-opacity:1"
       id="path1"
       cx="19.392319"
       cy="28.483366"
       rx="0.73263699"
       ry="0.67401546" /><path
       style="fill:#017ab9;fill-opacity:1;stroke:#017ab9;stroke-width:1.01816;stroke-linecap:square;stroke-opacity:1"
       d="m 97.608498,178.42104 c -5.722303,-0.24951 -11.322094,-1.20434 -15.920822,-2.7147 -6.071892,-1.99419 -14.358619,-6.52388 -20.080567,-10.97644 -4.371806,-3.40194 -10.089194,-10.22596 -14.257797,-17.01749 -1.350808,-2.20074 -3.705546,-6.40345 -3.630081,-6.47891 0.02041,-0.0204 1.888495,0.70411 4.151298,1.61005 13.484326,5.39861 26.84723,9.89404 34.847157,11.72296 4.286649,0.98001 7.375468,1.44661 10.918238,1.64933 l 1.885848,0.10791 1.214619,3.32772 c 2.346059,6.42757 4.987759,12.74133 7.077679,16.91593 l 1.01147,2.0204 -2.25923,-0.0245 c -1.24258,-0.0135 -3.473594,-0.0775 -4.957812,-0.14221 z"
       id="path9"
       transform="scale(0.26458333)" /><path
       style="fill:#017ab9;fill-opacity:1;stroke:#017ab9;stroke-width:1.01816;stroke-linecap:square;stroke-opacity:1"
       d="m 133.67085,175.04161 c -0.44241,-1.16362 -2.87976,-6.32424 -5.63173,-11.92412 -1.70046,-3.46018 -4.03559,-6.88234 -3.82547,-6.91971 0.028,-0.005 3.3451,0.44351 6.43909,0.29756 22.42282,-1.05776 27.52334,-1.38794 35.77626,-2.316 8.65757,-0.97357 13.01613,-1.56095 18.21527,-2.45478 1.76227,-0.30297 4.24012,-0.86941 4.30628,-0.86941 0.17295,0 -4.02421,2.67401 -6.16348,4.1145 -2.11984,1.4274 -12.04188,7.31536 -15.84272,9.40142 -5.74773,3.15459 -6.76576,3.52259 -20.9207,7.56232 -6.49302,1.85307 -11.89363,3.40255 -12.00137,3.44329 -0.10773,0.0407 -0.26587,-0.11004 -0.35143,-0.33507 z"
       id="path10"
       transform="scale(0.26458333)"
       sodipodi:nodetypes="ssssssssssss" /></g><g
     inkscape:groupmode="layer"
     id="layer3"
     inkscape:label="name"
     style="stroke:#000000;stroke-width:0.9;stroke-dasharray:none;stroke-opacity:1"><path
       d="M 115.30121,124.7742 H 98.021215 v -63.936 h -70.272 v 63.936 h -17.28 v -137.088 h 17.28 v 57.984 h 70.272 v -57.984 h 17.279995 z m 123.45586,0 -16.512,-42.432 h -54.336 l -16.32,42.432 h -17.472 l 53.568,-137.664 h 15.552 l 53.376,137.664 z m -37.056,-99.264 c -0.384,-1.024 -1.024,-2.88 -1.92,-5.568 -0.896,-2.688 -1.792,-5.44 -2.688,-8.256 -0.768,-2.9439997 -1.408,-5.1839996 -1.92,-6.7199996 -0.896,3.9679997 -1.92,7.8719996 -3.072,11.7119996 -1.152,3.712 -2.112,6.656 -2.88,8.832 l -15.552,41.472 h 43.392 z m 111.55198,-37.824 c 17.024,0 29.568,3.2640001 37.632,9.7920004 8.192,6.4 12.288,16.1279996 12.288,29.1839996 0,7.296 -1.344,13.376 -4.032,18.24 -2.688,4.864 -6.144,8.768 -10.368,11.712 -4.096,2.816 -8.448,5.056 -13.056,6.72 l 37.632,61.44 h -20.16 l -33.216,-56.64 h -27.264 v 56.64 h -17.28 v -137.088 z m -0.96,14.9760004 h -19.584 V 53.5422 h 20.544 c 11.136,0 19.264,-2.176 24.384,-6.528 5.12,-4.48 7.68,-11.008 7.68,-19.584 0,-8.96 -2.688,-15.296 -8.064,-19.0079996 -5.376,-3.84 -13.696,-5.76 -24.96,-5.76 z M 434.021,-12.3138 c 17.152,0 30.08,2.5600001 38.784,7.6800004 8.832,4.992 13.248,13.7599999 13.248,26.3039996 0,8.064 -2.24,14.784 -6.72,20.16 -4.48,5.248 -11.36444,9.855039 -11.60956,10.769848 0,0.718844 3.16156,2.926152 7.76956,5.358152 4.736,2.432 8.448,5.888 11.136,10.368 2.688,4.48 4.032,10.304 4.032,17.472 0,12.416 -4.288,22.016 -12.864,28.8 -8.448,6.784 -20.032,10.176 -34.752,10.176 h -48.192 v -137.088 z m 3.456,58.368 c 11.776,0 19.84,-1.856 24.192,-5.568 4.352,-3.84 6.528,-9.472 6.528,-16.896 0,-7.552 -2.688,-12.928 -8.064,-16.1279996 -5.248,-3.328 -13.696,-4.992 -25.344,-4.992 H 412.133 V 46.0542 Z m -25.344,14.4 v 49.728 h 27.648 c 12.16,0 20.608,-2.368 25.344,-7.104 4.736,-4.736 7.104,-10.944 7.104,-18.624 0,-7.168 -2.496,-12.928 -7.488,-17.28 -4.864,-4.48 -13.632,-6.72 -26.304,-6.72 z m 227.13593,-4.416 c 0,14.208 -2.432,26.624 -7.296,37.248 -4.736,10.496 -11.776,18.688 -21.12,24.576 -9.344,5.888 -20.928,8.832 -34.752,8.832 -14.208,0 -26.048,-2.944 -35.52,-8.832 -9.344,-5.888 -16.32,-14.144 -20.928,-24.768 -4.608,-10.624 -6.912,-23.04 -6.912,-37.248 0,-14.08 2.304,-26.368 6.912,-36.864 4.608,-10.4959997 11.584,-18.6879996 20.928,-24.5759996 9.472,-5.8880004 21.376,-8.8320004 35.712,-8.8320004 13.696,0 25.216,2.944 34.56,8.8320004 9.344,5.76 16.384,13.9519999 21.12,24.5759996 4.864,10.496 7.296,22.848 7.296,37.056 z m -108.288,0 c 0,17.28 3.648,30.912 10.944,40.896 7.296,9.856 18.688,14.784 34.176,14.784 15.616,0 27.008,-4.928 34.176,-14.784 7.168,-9.984 10.752,-23.616 10.752,-40.896 0,-17.28 -3.584,-30.784 -10.752,-40.512 -7.168,-9.8559997 -18.496,-14.78399956 -33.984,-14.78399956 -15.488,0 -26.944,4.92799986 -34.368,14.78399956 -7.296,9.728 -10.944,23.232 -10.944,40.512 z m 176.44766,-68.352 c 17.024,0 29.568,3.2640001 37.632,9.7920004 8.192,6.4 12.288,16.1279996 12.288,29.1839996 0,7.296 -1.344,13.376 -4.032,18.24 -2.688,4.864 -6.144,8.768 -10.368,11.712 -4.096,2.816 -8.448,5.056 -13.056,6.72 l 37.632,61.44 h -20.16 l -33.216,-56.64 h -27.264 v 56.64 h -17.28 v -137.088 z m -0.96,14.9760004 h -19.584 V 53.5422 h 20.544 c 11.136,0 19.264,-2.176 24.384,-6.528 5.12,-4.48 7.68,-11.008 7.68,-19.584 0,-8.96 -2.688,-15.296 -8.064,-19.0079996 -5.376,-3.84 -13.696,-5.76 -24.96,-5.76 z"
       id="text6"
       style="font-size:192px;font-family:'Noto Sans';-inkscape-font-specification:'Noto Sans';text-align:center;text-anchor:middle;fill:none;stroke:#017ab9;stroke-width:8.24673;stroke-linecap:round;stroke-linejoin:round"
       transform="matrix(0.24627959,0,0,0.24627959,86.01587,19.824883)"
       aria-label="HARBOR"
       sodipodi:nodetypes="cccccccccccccccccccccccscccccccscsscccccccccssccscscsscscccsscsccsscscsccsccssscscscsscssscsccsscscscscsscsscccccccccssccscscs" /></g></svg>
