<?xml version="1.0" encoding="UTF-8" standalone="no"?>
<!-- Created with Inkscape (http://www.inkscape.org/) -->

<svg
   width="64mm"
   height="37mm"
   viewBox="0 0 64 37"
   version="1.1"
   id="svg1"
   inkscape:version="1.3 (1:1.3+202307231459+0e150ed6c4)"
   sodipodi:docname="harbor-logo-whale.svg"
   xml:space="preserve"
   inkscape:export-filename="harbor-logo-whale.png"
   inkscape:export-xdpi="600"
   inkscape:export-ydpi="600"
   xmlns:inkscape="http://www.inkscape.org/namespaces/inkscape"
   xmlns:sodipodi="http://sodipodi.sourceforge.net/DTD/sodipodi-0.dtd"
   xmlns="http://www.w3.org/2000/svg"
   xmlns:svg="http://www.w3.org/2000/svg"><sodipodi:namedview
     id="namedview1"
     pagecolor="#ffffff"
     bordercolor="#000000"
     borderopacity="0.25"
     inkscape:showpageshadow="2"
     inkscape:pageopacity="0.0"
     inkscape:pagecheckerboard="0"
     inkscape:deskcolor="#d1d1d1"
     inkscape:document-units="mm"
     inkscape:zoom="4.0688699"
     inkscape:cx="119.81214"
     inkscape:cy="90.811456"
     inkscape:window-width="1920"
     inkscape:window-height="1043"
     inkscape:window-x="1920"
     inkscape:window-y="1080"
     inkscape:window-maximized="1"
     inkscape:current-layer="layer2"
     showguides="true" /><defs
     id="defs1" /><g
     inkscape:groupmode="layer"
     id="layer2"
     inkscape:label="whale"
     style="display:inline"><path
       style="display:inline;fill:none;stroke:#017ab9;stroke-width:0.874523;stroke-linecap:round;stroke-linejoin:round;stroke-dasharray:none;stroke-opacity:1"
       d="m 15.252605,20.822615 c 1.124108,3.42468 2.178939,6.887458 3.857541,10.007192 1.145361,1.560232 1.407019,2.675048 3.602467,4.764557 0.821021,0.821021 1.53104,0.862999 1.820452,0.695907 0.931233,-0.610005 0.953932,-1.447606 0.953932,-2.113861 0,-1.494935 -0.271791,-2.567197 -0.64506,-3.873553 -0.189031,-0.705474 -2.027309,-4.23086 -2.947979,-6.053885"
       id="path2"
       sodipodi:nodetypes="ccccccc" /><path
       style="display:inline;fill:none;stroke:#017ab9;stroke-width:0.874523;stroke-linecap:round;stroke-linejoin:round;stroke-dasharray:none;stroke-opacity:1"
       d="m 24.841937,30.302857 5.547305,-1.586263 c 1.662405,-0.44544 3.254524,-1.48369 5.48822,-2.795791 1.501094,-0.866656 2.949641,-2.120249 4.744856,-3.527964 5.304345,-5.241602 7.926954,-9.306163 8.048937,-9.428147 0.470547,-0.470547 1.503513,-1.214959 1.977233,-1.341891 0.847625,-0.22712 4.415533,-0.481818 4.837298,-0.613749 1.783606,-0.487456 3.483032,-1.008423 4.703447,-1.9449775 0.914853,-0.6765272 1.577829,-1.2419629 2.641298,-2.3054332 0.532549,-0.5482872 0.235757,-1.1923723 -0.115236,-1.0983244 -1.79347,0.480559 -5.079694,0.7732416 -5.29617,0.7732416 -1.074506,-0.00306 -2.896936,-0.108865 -4.284926,-0.369457 C 51.71162,5.6829216 50.685199,5.0878754 49.470937,4.3430269 48.626283,3.8553651 47.806311,2.7136976 46.967227,1.6351182 45.776464,0.34964689 45.224363,0.46979493 45.224363,1.815813 c -0.07377,3.4690565 2.88173,5.7169557 2.292573,7.9157191 -0.115052,0.4293769 -2.745285,3.7535879 -5.515092,4.8133179 -0.794321,0.212838 -2.490961,0.697 -4.096623,0.266764 C 32.975987,13.49083 31.212719,12.537807 21.112866,11.814931 15.163372,11.210282 8.3320048,11.009499 7.0897226,11.033095 c -1.3021528,0 -2.6240848,-0.153387 -3.9197295,-0.153387 -1.9135369,0 -1.8299587,1.2211 -1.8299587,1.581823 0,3.634277 1.4701862,7.317047 2.1915704,8.898321 1.2838132,2.757023 2.8134557,4.585318 3.8737348,5.645596 1.1017228,1.101732 3.8587934,2.816563 6.0285564,3.397948 2.098644,0.562331 3.790152,0.528937 5.737369,0.510394"
       id="path3"
       sodipodi:nodetypes="cccccccccccccccccccccccccc" /><path
       style="display:inline;fill:none;stroke:#017ab9;stroke-width:0.874523;stroke-linecap:round;stroke-linejoin:round;stroke-dasharray:none;stroke-opacity:1"
       d="m 3.4709374,21.002255 c 4.773358,1.958285 10.3565176,4.064671 13.0265996,3.827801"
       id="path4"
       sodipodi:nodetypes="cc" /><path
       style="display:inline;fill:none;stroke:#017ab9;stroke-width:0.874523;stroke-linecap:round;stroke-linejoin:round;stroke-dasharray:none;stroke-opacity:1"
       d="m 1.6245769,15.429091 c 2.6758522,2.258408 6.1134486,3.307379 9.0592781,3.04653"
       id="path5"
       sodipodi:nodetypes="cc" /><path
       style="display:inline;fill:none;stroke:#017ab9;stroke-width:0.874523;stroke-linecap:round;stroke-linejoin:round;stroke-dasharray:none;stroke-opacity:1"
       d="m 22.331221,25.01173 c 2.97395,-0.162499 5.9479,-0.248067 8.92185,-0.488101 3.157541,-0.3273 6.221736,-0.683481 8.324044,-1.34389"
       id="path6"
       sodipodi:nodetypes="ccc" /><ellipse
       style="display:inline;fill:#017ab9;fill-opacity:1;stroke:none;stroke-width:1.43592;stroke-linecap:round;stroke-linejoin:round;stroke-opacity:1"
       id="path1"
       cx="11.121119"
       cy="14.064373"
       rx="0.64070767"
       ry="0.58944178" /><path
       style="display:inline;fill:#017ab9;fill-opacity:1;stroke:#017ab9;stroke-width:0.235586;stroke-linecap:square;stroke-opacity:1"
       d="M 16.747151,30.438819 C 15.423101,30.381086 14.127398,30.160153 13.063326,29.81068 11.658386,29.349256 9.7409689,28.301158 8.4170014,27.270906 7.4054349,26.483752 6.0825226,24.904782 5.117974,23.333329 4.8054178,22.824113 4.2605692,21.851673 4.2780308,21.834212 c 0.00472,-0.0047 0.4369675,0.16292 0.9605442,0.372541 3.120059,1.249152 6.212022,2.289323 8.063079,2.712507 0.991863,0.226758 1.706566,0.334722 2.526307,0.381628 l 0.436355,0.02497 0.281043,0.769981 c 0.542842,1.487238 1.154088,2.948142 1.637663,3.914078 l 0.234038,0.467488 -0.52275,-0.0057 c -0.287513,-0.0031 -0.803734,-0.01793 -1.147159,-0.03291 z"
       id="path9" /><path
       style="display:inline;fill:#017ab9;fill-opacity:1;stroke:#017ab9;stroke-width:0.235586;stroke-linecap:square;stroke-opacity:1"
       d="m 25.091407,29.656872 c -0.102367,-0.269243 -0.666331,-1.463329 -1.303093,-2.759052 -0.39346,-0.800631 -0.933772,-1.592464 -0.885153,-1.60111 0.0065,-0.0011 0.774003,0.102621 1.489903,0.06885 5.188284,-0.244749 6.368464,-0.321148 8.278058,-0.535886 2.003225,-0.225269 3.011726,-0.361179 4.214725,-0.567997 0.407761,-0.0701 0.981096,-0.201168 0.996404,-0.201168 0.04002,0 -0.931138,0.618724 -1.426131,0.95203 -0.490498,0.330278 -2.7863,1.692658 -3.665754,2.175339 -1.329933,0.729922 -1.565489,0.815072 -4.840717,1.749801 -1.502382,0.428771 -2.751998,0.787296 -2.776927,0.796722 -0.02492,0.0094 -0.06151,-0.02546 -0.08131,-0.07753 z"
       id="path10"
       sodipodi:nodetypes="ssssssssssss" /></g><g
     inkscape:groupmode="layer"
     id="layer3"
     inkscape:label="name"
     style="stroke:#000000;stroke-width:0.9;stroke-dasharray:none;stroke-opacity:1" /></svg>
