<?xml version="1.0" encoding="UTF-8" standalone="no"?>
<!-- Created with Inkscape (http://www.inkscape.org/) -->

<svg
   width="90mm"
   height="90mm"
   viewBox="0 0 90 90"
   version="1.1"
   id="svg1"
   inkscape:version="1.1.2 (0a00cf5339, 2022-02-04)"
   sodipodi:docname="harbor-logo-square-white.svg"
   xml:space="preserve"
   inkscape:export-filename="harbor-logo-square.png"
   inkscape:export-xdpi="600"
   inkscape:export-ydpi="600"
   xmlns:inkscape="http://www.inkscape.org/namespaces/inkscape"
   xmlns:sodipodi="http://sodipodi.sourceforge.net/DTD/sodipodi-0.dtd"
   xmlns="http://www.w3.org/2000/svg"
   xmlns:svg="http://www.w3.org/2000/svg"><sodipodi:namedview
     id="namedview1"
     pagecolor="#ffffff"
     bordercolor="#000000"
     borderopacity="0.25"
     inkscape:showpageshadow="2"
     inkscape:pageopacity="0.2"
     inkscape:pagecheckerboard="true"
     inkscape:deskcolor="#d1d1d1"
     inkscape:document-units="mm"
     inkscape:zoom="1.2527955"
     inkscape:cx="202.74658"
     inkscape:cy="43.901818"
     inkscape:window-width="1868"
     inkscape:window-height="1136"
     inkscape:window-x="52"
     inkscape:window-y="27"
     inkscape:window-maximized="1"
     inkscape:current-layer="layer2"
     showguides="true"
     inkscape:pageshadow="2"
     showgrid="false" /><defs
     id="defs1" /><g
     inkscape:groupmode="layer"
     id="layer2"
     inkscape:label="whale"
     style="display:inline"><g
       id="g1"
       transform="matrix(1.4373578,0,0,1.4373578,-0.99544937,2.32039)"><path
         style="display:inline;fill:none;stroke:#ffffff;stroke-width:0.849067;stroke-linecap:round;stroke-linejoin:round;stroke-dasharray:none;stroke-opacity:1"
         d="m 15.517216,31.889438 c 1.091387,3.324995 2.115515,6.686981 3.745257,9.715906 1.112022,1.514817 1.366063,2.597184 3.497608,4.625872 0.797122,0.797122 1.486474,0.837879 1.767463,0.675651 0.904127,-0.592249 0.926165,-1.40547 0.926165,-2.052331 0,-1.451422 -0.26388,-2.492473 -0.626284,-3.760803 -0.183529,-0.684939 -1.968299,-4.107711 -2.86217,-5.877671"
         id="path2"
         sodipodi:nodetypes="ccccccc" /><path
         style="display:inline;fill:none;stroke:#ffffff;stroke-width:0.849067;stroke-linecap:round;stroke-linejoin:round;stroke-dasharray:none;stroke-opacity:1"
         d="m 24.827425,41.093733 5.385836,-1.540091 c 1.614016,-0.432474 3.159792,-1.440504 5.328471,-2.714412 1.4574,-0.84143 2.863784,-2.058533 4.606744,-3.425274 5.149947,-5.089031 7.696219,-9.035282 7.814651,-9.153715 0.456851,-0.456851 1.45975,-1.179594 1.91968,-1.302832 0.822953,-0.220509 4.287007,-0.467794 4.696496,-0.595884 1.731689,-0.473267 3.381649,-0.97907 4.56654,-1.888364 0.888225,-0.656835 1.531903,-1.205813 2.564416,-2.238327 0.517048,-0.532328 0.228895,-1.157665 -0.111881,-1.066355 -1.741267,0.466571 -4.931836,0.750734 -5.142011,0.750734 -1.043229,-0.003 -2.812613,-0.105696 -4.160201,-0.358703 -1.381172,-0.370084 -2.377716,-0.94781 -3.556634,-1.670978 -0.820067,-0.473468 -1.616172,-1.581904 -2.430833,-2.629088 -1.156102,-1.248054 -1.692133,-1.131403 -1.692133,0.175436 -0.07162,3.36808 2.79785,5.550548 2.225841,7.685311 -0.111702,0.416878 -2.665376,3.644329 -5.35456,4.673213 -0.7712,0.206643 -2.418455,0.676712 -3.97738,0.258999 C 32.724712,24.771064 31.012769,23.845781 21.206898,23.143947 15.43058,22.556898 8.7980583,22.361959 7.591936,22.384869 c -1.2642502,0 -2.5477038,-0.148923 -3.8056353,-0.148923 -1.8578383,0 -1.776693,1.185557 -1.776693,1.53578 0,3.528491 1.4273926,7.104064 2.127779,8.639311 1.2464444,2.676772 2.7315625,4.45185 3.7609794,5.481267 1.0696542,1.069662 3.7464729,2.734579 5.8530789,3.299041 2.037558,0.545962 3.67983,0.513541 5.570368,0.495538"
         id="path3"
         sodipodi:nodetypes="cccccccccccccccccccccccccc" /><path
         style="display:inline;fill:none;stroke:#ffffff;stroke-width:0.849067;stroke-linecap:round;stroke-linejoin:round;stroke-dasharray:none;stroke-opacity:1"
         d="M 4.0784852,32.063849 C 8.7129019,33.965133 14.133548,36.010207 16.72591,35.780232"
         id="path4"
         sodipodi:nodetypes="cc" /><path
         style="display:inline;fill:none;stroke:#ffffff;stroke-width:0.849067;stroke-linecap:round;stroke-linejoin:round;stroke-dasharray:none;stroke-opacity:1"
         d="m 2.2858679,26.652907 c 2.5979644,2.192671 5.9355004,3.211109 8.7955841,2.957852"
         id="path5"
         sodipodi:nodetypes="cc" /><path
         style="display:inline;fill:none;stroke:#ffffff;stroke-width:0.849067;stroke-linecap:round;stroke-linejoin:round;stroke-dasharray:none;stroke-opacity:1"
         d="m 22.38979,35.956617 c 2.887385,-0.157768 5.77477,-0.240846 8.662155,-0.473892 3.065634,-0.317773 6.040636,-0.663587 8.08175,-1.304774"
         id="path6"
         sodipodi:nodetypes="ccc" /><ellipse
         style="display:inline;fill:#ffffff;fill-opacity:1;stroke:none;stroke-width:1.39413;stroke-linecap:round;stroke-linejoin:round;stroke-opacity:1"
         id="path1"
         cx="11.505986"
         cy="25.327911"
         rx="0.62205815"
         ry="0.57228452" /><path
         style="display:inline;fill:#ffffff;fill-opacity:1;stroke:#ffffff;stroke-width:0.228729;stroke-linecap:square;stroke-opacity:1"
         d="M 16.968259,41.225737 C 15.682749,41.169681 14.424761,40.955183 13.391661,40.615882 12.027617,40.167889 10.166011,39.150299 8.8805808,38.150034 7.8984587,37.385792 6.6140533,35.852782 5.6775804,34.327071 5.374122,33.832677 4.8451327,32.888542 4.862086,32.871591 c 0.00459,-0.0046 0.4242484,0.158178 0.932585,0.361696 3.0292414,1.212792 6.031205,2.222686 7.828381,2.633552 0.962992,0.220158 1.656893,0.324979 2.452773,0.37052 l 0.423653,0.02424 0.272863,0.74757 c 0.527041,1.443947 1.120495,2.862327 1.589994,3.800148 l 0.227226,0.45388 -0.507534,-0.0055 c -0.279144,-0.0031 -0.780339,-0.01741 -1.113768,-0.03195 z"
         id="path9" /><path
         style="display:inline;fill:#ffffff;fill-opacity:1;stroke:#ffffff;stroke-width:0.228729;stroke-linecap:square;stroke-opacity:1"
         d="m 25.069633,40.466551 c -0.09939,-0.261406 -0.646936,-1.420734 -1.265163,-2.678742 -0.382007,-0.777327 -0.906591,-1.546112 -0.859388,-1.554507 0.0063,-0.0011 0.751474,0.09963 1.446535,0.06685 5.037266,-0.237624 6.183093,-0.311799 8.037104,-0.520287 1.944915,-0.218711 2.924061,-0.350666 4.092043,-0.551464 0.395892,-0.06806 0.952539,-0.195312 0.967402,-0.195312 0.03885,0 -0.904035,0.600713 -1.38462,0.924319 -0.47622,0.320663 -2.705197,1.643388 -3.559052,2.11202 -1.291222,0.708675 -1.519922,0.791347 -4.699816,1.698868 -1.458651,0.41629 -2.671893,0.76438 -2.696097,0.773532 -0.0242,0.0091 -0.05972,-0.02472 -0.07895,-0.07527 z"
         id="path10"
         sodipodi:nodetypes="ssssssssssss" /></g></g><g
     inkscape:groupmode="layer"
     id="layer3"
     inkscape:label="name"
     style="stroke:#000000;stroke-width:0.9;stroke-dasharray:none;stroke-opacity:1" /></svg>
